<?xml version="1.0" standalone="no"?><!DOCTYPE svg PUBLIC "-//W3C//DTD SVG 1.1//EN" "http://www.w3.org/Graphics/SVG/1.1/DTD/svg11.dtd"><svg t="1665009644613" class="icon" viewBox="0 0 1024 1024" version="1.1" xmlns="http://www.w3.org/2000/svg" p-id="5205" xmlns:xlink="http://www.w3.org/1999/xlink" width="48" height="48"><path d="M512 512m-512 0a512 512 0 1 0 1024 0 512 512 0 1 0-1024 0Z" fill="#B3DFFF" p-id="5206"></path><path d="M791.272727 218.530909H232.727273a69.818182 69.818182 0 0 0-69.818182 69.818182v418.909091a69.818182 69.818182 0 0 0 69.818182 69.818182h116.363636v63.069091a11.636364 11.636364 0 0 0 19.781818 8.145454l71.214546-71.214545H791.272727a69.818182 69.818182 0 0 0 69.818182-69.818182v-418.909091a69.818182 69.818182 0 0 0-69.818182-69.818182z m-535.272727 349.090909h139.636364a23.272727 23.272727 0 0 1 0 46.545455h-139.636364a23.272727 23.272727 0 0 1 0-46.545455z m69.818182 139.636364h-69.818182a23.272727 23.272727 0 0 1 0-46.545455h69.818182a23.272727 23.272727 0 1 1 0 46.545455z m302.545454 0H395.636364a23.272727 23.272727 0 0 1 0-46.545455h232.727272a23.272727 23.272727 0 0 1 0 46.545455z m139.636364 0h-69.818182a23.272727 23.272727 0 0 1 0-46.545455h69.818182a23.272727 23.272727 0 0 1 0 46.545455z m0-93.090909H465.454545a23.272727 23.272727 0 0 1 0-46.545455h302.545455a23.272727 23.272727 0 0 1 0 46.545455z" fill="#439DFF" p-id="5207"></path></svg>