<?xml version="1.0" standalone="no"?><!DOCTYPE svg PUBLIC "-//W3C//DTD SVG 1.1//EN" "http://www.w3.org/Graphics/SVG/1.1/DTD/svg11.dtd"><svg t="1673185983659" class="icon" viewBox="0 0 1024 1024" version="1.1" xmlns="http://www.w3.org/2000/svg" p-id="3474" xmlns:xlink="http://www.w3.org/1999/xlink" width="150" height="150"><path d="M511.984 513.209m-450 0a450 450 0 1 0 900 0 450 450 0 1 0-900 0Z" fill="#FFBDBD" p-id="3475"></path><path d="M722.199 538.782c89.076-28.942 121.355-87.946 130.618-146.791-39.535-34.323-102.878-70.924-191.954-41.981-36.818 11.963-65.508 39.116-86.507 66.858 19.617-28.389 36.213-63.718 36.213-102.016 0-93.66-46.141-142.592-99.243-169.586-44.86 26.994-99.243 75.926-99.243 169.586 0 38.713 16.959 74.389 36.853 102.933-20.938-27.43-49.409-54.131-85.833-65.966-89.076-28.942-149.872-0.181-191.954 41.981 11.81 51.006 41.542 117.849 130.618 146.791 36.798 11.956 75.946 6.864 109.229-3.225-32.541 11.438-66.708 30.264-89.206 61.231-55.052 75.772-46.485 142.481-19.39 195.532 52.159 4.53 124.918-3.092 179.97-78.864 22.755-31.319 30.005-70.15 30.688-104.936 0.816 34.498 8.156 72.834 30.667 103.818 55.052 75.772 121.142 88.238 179.97 78.864 20.426-48.207 35.661-119.759-19.39-195.532-22.721-31.273-57.343-50.164-90.172-61.569 33.028 9.855 71.696 14.689 108.066 2.872z m-136.843-25.2c-5.18 0-9.419-3.992-9.829-9.067h-60.819l52.71 30.432c2.891-4.194 8.561-5.534 13.049-2.943 4.72 2.725 6.338 8.761 3.612 13.482-2.725 4.72-8.761 6.338-13.482 3.612-4.486-2.59-6.161-8.167-3.979-12.766l-52.671-30.41 30.432 52.71c4.6-2.187 10.181-0.512 12.772 3.976 2.725 4.72 1.108 10.756-3.612 13.482-4.72 2.725-10.756 1.108-13.482-3.612-2.59-4.486-1.252-10.154 2.938-13.045l-30.41-52.671v60.864c5.077 0.406 9.073 4.647 9.073 9.829 0 5.451-4.419 9.869-9.869 9.869s-9.869-4.419-9.869-9.869c0-5.18 3.992-9.419 9.067-9.829v-60.819l-30.432 52.71c4.194 2.891 5.534 8.561 2.943 13.049-2.725 4.72-8.761 6.338-13.482 3.612-4.72-2.725-6.338-8.761-3.612-13.482 2.59-4.486 8.167-6.161 12.766-3.978l30.41-52.671-52.71 30.432c2.187 4.6 0.512 10.181-3.976 12.772-4.72 2.725-10.756 1.108-13.481-3.612-2.725-4.72-1.108-10.756 3.612-13.482 4.486-2.59 10.153-1.252 13.045 2.938l52.671-30.41h-60.864c-0.406 5.077-4.647 9.073-9.829 9.073-5.451 0-9.869-4.419-9.869-9.869 0-5.451 4.419-9.869 9.869-9.869 5.18 0 9.419 3.992 9.829 9.067h60.819l-52.71-30.432c-2.891 4.194-8.561 5.534-13.049 2.943-4.72-2.725-6.338-8.761-3.612-13.482 2.725-4.72 8.761-6.338 13.482-3.612 4.486 2.59 6.161 8.167 3.979 12.766l52.671 30.41-30.432-52.71c-4.6 2.187-10.181 0.512-12.772-3.976-2.725-4.72-1.108-10.756 3.612-13.482 4.72-2.725 10.756-1.108 13.482 3.612 2.59 4.486 1.252 10.153-2.938 13.045l30.35 52.568V440.04c-5.077-0.406-9.073-4.647-9.073-9.829 0-5.451 4.419-9.869 9.869-9.869s9.869 4.419 9.869 9.869c0 5.18-3.992 9.419-9.067 9.829v60.859l30.492-52.813c-4.194-2.891-5.534-8.561-2.943-13.049 2.725-4.72 8.761-6.338 13.482-3.612 4.72 2.725 6.338 8.761 3.612 13.481-2.59 4.486-8.167 6.161-12.766 3.979l-30.41 52.671 52.71-30.432c-2.187-4.6-0.512-10.181 3.976-12.772 4.72-2.725 10.756-1.108 13.482 3.612 2.725 4.72 1.108 10.756-3.612 13.482-4.486 2.59-10.153 1.252-13.045-2.938l-52.671 30.41h60.864c0.406-5.077 4.647-9.073 9.829-9.073 5.451 0 9.869 4.419 9.869 9.869s-4.42 9.868-9.87 9.868z" fill="#BA0505" p-id="3476"></path><path d="M516.903 508.993l1.904-3.298v-3.807l-1.904-3.297-3.25-1.876v0.161h-4.18l-2.971 1.715-1.904 3.297v3.807l1.904 3.298 3.297 1.903h3.807z" fill="#BA0505" p-id="3477"></path></svg>