<?xml version="1.0" standalone="no"?><!DOCTYPE svg PUBLIC "-//W3C//DTD SVG 1.1//EN" "http://www.w3.org/Graphics/SVG/1.1/DTD/svg11.dtd"><svg t="1690096118392" class="icon" viewBox="0 0 1024 1024" version="1.1" xmlns="http://www.w3.org/2000/svg" p-id="19916" xmlns:xlink="http://www.w3.org/1999/xlink" width="200" height="200"><path d="M512 0C229.2 0 0 229.2 0 512s229.2 512 512 512 512-229.2 512-512S794.8 0 512 0z m0 981.3C253.2 981.3 42.7 770.8 42.7 512S253.2 42.7 512 42.7 981.3 253.2 981.3 512 770.8 981.3 512 981.3z" fill="#1b6d9d" p-id="19917"></path><path d="M336.6 531.8c33.4-17.7 67.6-43.4 91.8-68l-19.6-15-6.1 1.5H220.2v26.9h153.6c-19.2 16.9-44.6 34.2-66.8 44.9V546H157.2v27.3H307v82.2c0 5.4-1.9 6.9-9.2 7.3-6.5 0.4-31.1 0.4-57.2-0.4 5 7.3 10.8 20 13.1 28 31.9 0 51.9-0.4 65.3-5 13.4-4.2 17.7-12.7 17.7-29.6v-82.6h149V546h-149v-14.2z" fill="#1b6d9d" p-id="19918"></path><path d="M189.8 407.7h262.7v51.1h29.2v-78.4H346.2c-5.4-13.1-15.7-30-25.7-43l-27.3 9.2c7.3 10 14.6 22.7 20 33.8H161.8v78.4h28v-51.1zM628 406.2h27.7v-17.7h98.7v17.7h28v-17.7h91.8v-23.4h-91.8v-24.6h-28v24.6h-98.7v-24.6H628v24.6h-90.3v23.4H628zM790.9 562.5h85.7v-23H672.2c5.4-6.9 9.6-13.4 13.8-20.7h148.3V413.5H581.1v105.2h73.8c-4.6 6.9-10 13.8-15.7 20.7H535.4v23h79.9c-22.3 18.1-50.7 34.6-85.7 47.2 5 4.6 13.1 14.2 16.1 21.1 18.4-7.7 35-15.7 49.9-24.6V682H623v-67.2h67.6v75.7h28v-75.7h73.8V654c0 4.2-1.5 5-5.4 5.4-4.2 0.4-18.4 0.4-34.6-0.4 3.5 6.5 6.9 15 8.1 21.9 23 0 38.4 0 47.6-3.5 9.6-4.2 11.9-10.4 11.9-23V609c15 8.8 31.1 15.8 46.9 20.7 3.5-6.9 11.1-16.5 16.9-21.5-33-8.4-68.3-25.7-92.9-45.7zM608.4 431.9h197.8v25H608.4v-25z m0 68.4v-25.4h197.8v25.4H608.4z m110.3 91.8v-22.3h-28v22.3h-73c12.7-9.2 24.2-19.2 34.6-29.6h107.9c9.2 10.4 20.7 20.7 33.8 29.6h-75.3z" fill="#1b6d9d" p-id="19919"></path></svg>