<?xml version="1.0" standalone="no"?><!DOCTYPE svg PUBLIC "-//W3C//DTD SVG 1.1//EN" "http://www.w3.org/Graphics/SVG/1.1/DTD/svg11.dtd"><svg t="1687437791007" class="icon" viewBox="0 0 1024 1024" version="1.1" xmlns="http://www.w3.org/2000/svg" p-id="2815" xmlns:xlink="http://www.w3.org/1999/xlink" width="200" height="200"><path d="M442.134656 161.5249952s-76.1208832-3.4645056-124.66216213 59.27316907c-48.5642016 62.73549227-12.09302293 158.56170453 10.9316384 207.9936704 23.0235712 49.43087467 144.5126656 243.4027936 148.97591786 247.6695712 4.4283232 4.2776928 9.7647968 2.47776533 10.05623467-1.36113387 0.29362027-3.8072448 13.87766933-281.84308587 2.94493867-350.3985984-10.93163947-68.55769493-43.29758613-155.6560608-48.24656747-163.1766784zM179.05163733 290.7781184c-8.70055893 0.931072-71.14352107 63.2037568-76.77143253 124.086928-5.65519893 60.87880533 20.4039072 101.39518187 93.16397973 149.86660373 73.24252693 51.93592747 247.30936747 147.48161813 250.50644907 139.250416 3.20144747-8.20937173-67.45088747-133.74693867-125.270144-225.052048-57.8148896-91.30292693-132.96649707-189.07969707-141.62885227-188.15189973z m23.4099712 561.58716693c52.67816533 23.55186987 134.74350293-29.34241813 157.44507307-44.7263936 21.1123072-16.12948907 60.11037013-45.7808096 60.1103712-45.7808096l-298.49214187 7.9888832s28.25744107 58.96208427 80.9366976 82.51832z m7.49878827-241.211008c-53.42258667-26.74131093-163.33058453-88.17352-167.63119893-86.9979456-4.2995232 1.17339093-20.85689067 77.59335253 13.51528213 135.19212054 34.3721728 57.598768 101.31004267 75.2127328 132.02887573 79.9193952 34.53808533 4.9206016 237.60897067 2.72117547 236.2478368-1.36222507-1.1974048-3.56383467-160.70655467-100.0351392-214.16079573-126.75134507z m495.233264-390.35502186c-48.53691413-62.73767467-124.66107093-59.27316907-124.66107093-59.27316907-4.942432 7.5184352-37.31602027 94.61680107-48.24656747 163.17667947-10.93273067 68.55660373 2.6851552 346.5902624 2.9755008 350.4007808 0.29362027 3.83562453 5.5940736 5.63336853 10.0518688 1.36004266 4.43050667-4.26896107 125.95343893-198.24088 148.97919253-247.67175466 22.99082453-49.43196587 59.46527787-145.25599573 10.90107627-207.9925792zM980.3358656 524.15524053c-4.298432-1.1766656-114.20642987 60.25881813-167.62792427 86.9979456-53.42258667 26.7151136-212.96229973 123.1875104-214.1313248 126.751344-1.3895136 4.08230933 201.68137173 6.28391893 236.21945707 1.36222614 30.71665067-4.7066624 97.65451947-22.3206272 132.02887573-79.91939627 34.4038272-57.59767573 17.81043947-134.0198208 13.51091627-135.19211947zM662.7671136 807.63889173c22.69720427 15.38288427 104.7952864 68.27826453 157.47672747 44.7263936 52.67707413-23.5584192 80.93997333-82.51832 80.93997226-82.51832l-298.49323306-7.9888832c-0.00218347 0 38.99369707 29.6556864 60.07653333 45.7808096z m257.65485653-392.77493653c-5.6584736-60.88208-68.09925333-123.1547648-76.76815786-124.086928-8.6951008-0.92779733-83.84889173 96.8489728-141.66378134 188.15299093-57.82143893 91.30510933-128.46831573 216.84595093-125.26796053 225.052048 3.20035627 8.23011093 177.29339307-87.31448853 250.50863147-139.250416 72.75570667-48.47251413 98.85083307-88.9877984 93.19126826-149.86769493z" fill="#ca141d" p-id="2816"></path></svg>